<svg width="168" height="25" viewBox="0 0 168 25" fill="none" xmlns="http://www.w3.org/2000/svg">
<g clip-path="url(#clip0_65_643)">
<path d="M23.9372 9.70529C23.7792 9.21931 23.3482 8.87525 22.8402 8.82929L15.9121 8.20032L13.1741 1.79005C12.972 1.3191 12.512 1.01514 12 1.01514C11.4881 1.01514 11.0279 1.3191 10.827 1.79005L8.08902 8.20032L1.15982 8.82929C0.651881 8.87617 0.221759 9.22023 0.0628208 9.70529C-0.0952019 10.1913 0.0507355 10.7243 0.434897 11.0612L5.67198 15.6534L4.12783 22.4544C4.01485 22.9545 4.20895 23.4716 4.62387 23.7715C4.8469 23.9335 5.10893 24.0145 5.37187 24.0145C5.59783 24.0145 5.82396 23.9544 6.02593 23.8336L12 20.2615L17.973 23.8336C18.4112 24.0954 18.9622 24.0714 19.3762 23.7715C19.7911 23.4716 19.9852 22.9545 19.8722 22.4544L18.3281 15.6534L23.5652 11.0612C23.9491 10.7243 24.0953 10.1924 23.9372 9.70529Z" fill="#F8D254"/>
</g>
<g clip-path="url(#clip1_65_643)">
<path d="M59.9372 9.70529C59.7792 9.21931 59.3482 8.87525 58.8402 8.82929L51.9121 8.20032L49.1741 1.79005C48.972 1.3191 48.512 1.01514 48 1.01514C47.4881 1.01514 47.0279 1.3191 46.827 1.79005L44.089 8.20032L37.1598 8.82929C36.6519 8.87617 36.2218 9.22023 36.0628 9.70529C35.9048 10.1913 36.0507 10.7243 36.4349 11.0612L41.672 15.6534L40.1278 22.4544C40.0149 22.9545 40.2089 23.4716 40.6239 23.7715C40.8469 23.9335 41.1089 24.0145 41.3719 24.0145C41.5978 24.0145 41.824 23.9544 42.0259 23.8336L48 20.2615L53.973 23.8336C54.4112 24.0954 54.9622 24.0714 55.3762 23.7715C55.7911 23.4716 55.9852 22.9545 55.8722 22.4544L54.3281 15.6534L59.5652 11.0612C59.9491 10.7243 60.0953 10.1924 59.9372 9.70529Z" fill="#F8D254"/>
</g>
<g clip-path="url(#clip2_65_643)">
<path d="M95.9372 9.70529C95.7792 9.21931 95.3482 8.87525 94.8402 8.82929L87.9121 8.20032L85.1741 1.79005C84.972 1.3191 84.512 1.01514 84 1.01514C83.4881 1.01514 83.0279 1.3191 82.827 1.79005L80.089 8.20032L73.1598 8.82929C72.6519 8.87617 72.2218 9.22023 72.0628 9.70529C71.9048 10.1913 72.0507 10.7243 72.4349 11.0612L77.672 15.6534L76.1278 22.4544C76.0149 22.9545 76.2089 23.4716 76.6239 23.7715C76.8469 23.9335 77.1089 24.0145 77.3719 24.0145C77.5978 24.0145 77.824 23.9544 78.0259 23.8336L84 20.2615L89.973 23.8336C90.4112 24.0954 90.9622 24.0714 91.3762 23.7715C91.7911 23.4716 91.9852 22.9545 91.8722 22.4544L90.3281 15.6534L95.5652 11.0612C95.9491 10.7243 96.0953 10.1924 95.9372 9.70529Z" fill="#F8D254"/>
</g>
<g clip-path="url(#clip3_65_643)">
<path d="M131.937 9.70529C131.779 9.21931 131.348 8.87525 130.84 8.82929L123.912 8.20032L121.174 1.79005C120.972 1.3191 120.512 1.01514 120 1.01514C119.488 1.01514 119.028 1.3191 118.827 1.79005L116.089 8.20032L109.16 8.82929C108.652 8.87617 108.222 9.22023 108.063 9.70529C107.905 10.1913 108.051 10.7243 108.435 11.0612L113.672 15.6534L112.128 22.4544C112.015 22.9545 112.209 23.4716 112.624 23.7715C112.847 23.9335 113.109 24.0145 113.372 24.0145C113.598 24.0145 113.824 23.9544 114.026 23.8336L120 20.2615L125.973 23.8336C126.411 24.0954 126.962 24.0714 127.376 23.7715C127.791 23.4716 127.985 22.9545 127.872 22.4544L126.328 15.6534L131.565 11.0612C131.949 10.7243 132.095 10.1924 131.937 9.70529Z" fill="#F8D254"/>
</g>
<g clip-path="url(#clip4_65_643)">
<path d="M167.937 9.70529C167.779 9.21931 167.348 8.87525 166.84 8.82929L159.912 8.20032L157.174 1.79005C156.972 1.3191 156.512 1.01514 156 1.01514C155.488 1.01514 155.028 1.3191 154.827 1.79005L152.089 8.20032L145.16 8.82929C144.652 8.87617 144.222 9.22023 144.063 9.70529C143.905 10.1913 144.051 10.7243 144.435 11.0612L149.672 15.6534L148.128 22.4544C148.015 22.9545 148.209 23.4716 148.624 23.7715C148.847 23.9335 149.109 24.0145 149.372 24.0145C149.598 24.0145 149.824 23.9544 150.026 23.8336L156 20.2615L161.973 23.8336C162.411 24.0954 162.962 24.0714 163.376 23.7715C163.791 23.4716 163.985 22.9545 163.872 22.4544L162.328 15.6534L167.565 11.0612C167.949 10.7243 168.095 10.1924 167.937 9.70529Z" fill="#F8D254"/>
</g>
<defs>
<clipPath id="clip0_65_643">
<rect width="24" height="24" fill="white" transform="translate(0 0.5)"/>
</clipPath>
<clipPath id="clip1_65_643">
<rect width="24" height="24" fill="white" transform="translate(36 0.5)"/>
</clipPath>
<clipPath id="clip2_65_643">
<rect width="24" height="24" fill="white" transform="translate(72 0.5)"/>
</clipPath>
<clipPath id="clip3_65_643">
<rect width="24" height="24" fill="white" transform="translate(108 0.5)"/>
</clipPath>
<clipPath id="clip4_65_643">
<rect width="24" height="24" fill="white" transform="translate(144 0.5)"/>
</clipPath>
</defs>
</svg>
