<svg width="266" height="173" viewBox="0 0 266 173" fill="none" xmlns="http://www.w3.org/2000/svg">
<path d="M74.25 117H64.6406C64.1406 117 63.8906 116.781 63.8906 116.344L63.7969 50.9531C63.7969 50.4531 64.0469 50.2031 64.5469 50.2031H73.2188L89.4375 88.0312L88.9688 50.9531C88.9688 50.4531 89.25 50.2031 89.8125 50.2031H99.3281C99.7031 50.2031 99.8906 50.4531 99.8906 50.9531L99.9844 116.438C99.9844 116.812 99.8281 117 99.5156 117H91.0781L74.4375 81.6562L75.1406 116.25C75.1406 116.75 74.8438 117 74.25 117Z" fill="white"/>
<path d="M30 114.385C43.2548 114.385 54 100.058 54 82.3848C54 64.7117 43.2548 50.3848 30 50.3848C16.7452 50.3848 6 64.7117 6 82.3848C6 100.058 16.7452 114.385 30 114.385Z" stroke="white" stroke-width="10" stroke-linecap="round" stroke-linejoin="round"/>
<path d="M30 63V83L40 89.6667" stroke="white" stroke-width="3" stroke-linecap="square" stroke-linejoin="round"/>
<path d="M139.281 117H128.453C128.172 117 128.031 116.844 128.031 116.531V61.7812H115.562C115.25 61.7812 115.094 61.625 115.094 61.3125L115.188 50.5781C115.188 50.3281 115.312 50.2031 115.562 50.2031H152.031C152.375 50.2031 152.547 50.3281 152.547 50.5781V61.3125C152.547 61.625 152.422 61.7812 152.172 61.7812H139.562L139.656 116.531C139.656 116.844 139.531 117 139.281 117ZM168.578 117H157.703C157.391 117 157.234 116.844 157.234 116.531L157.328 50.5781C157.328 50.3281 157.453 50.2031 157.703 50.2031H168.484C168.734 50.2031 168.859 50.3281 168.859 50.5781L168.953 116.531C168.953 116.844 168.828 117 168.578 117ZM188.641 117H177.766C177.516 117 177.391 116.844 177.391 116.531L177.578 50.5781C177.578 50.3281 177.703 50.2031 177.953 50.2031H189.672C189.922 50.2031 190.141 50.3281 190.328 50.5781L199.094 63.2344L207.812 50.5781C208 50.3281 208.234 50.2031 208.516 50.2031H220.281C220.562 50.2031 220.703 50.3281 220.703 50.5781L220.891 116.531C220.891 116.844 220.766 117 220.516 117H209.641C209.391 117 209.266 116.844 209.266 116.531L209.172 67.5469L199.094 82.1719L189.109 67.5469L189.016 116.531C189.016 116.844 188.891 117 188.641 117ZM260.359 117H229.328C229.078 117 228.953 116.844 228.953 116.531L229.047 50.5781C229.047 50.3281 229.172 50.2031 229.422 50.2031H260.266C260.516 50.2031 260.641 50.3594 260.641 50.6719V61.4062C260.641 61.6562 260.516 61.7812 260.266 61.7812H240.578V76.7812H260.266C260.516 76.7812 260.641 76.9062 260.641 77.1562L260.734 88.0312C260.734 88.2812 260.609 88.4062 260.359 88.4062H240.578V105.188H260.359C260.609 105.188 260.734 105.344 260.734 105.656V116.625C260.734 116.875 260.609 117 260.359 117Z" fill="white"/>
</svg>
