<svg width="266" height="169" viewBox="0 0 266 169" fill="none" xmlns="http://www.w3.org/2000/svg">
<path d="M74.25 113H64.6406C64.1406 113 63.8906 112.781 63.8906 112.344L63.7969 46.9531C63.7969 46.4531 64.0469 46.2031 64.5469 46.2031H73.2188L89.4375 84.0312L88.9688 46.9531C88.9688 46.4531 89.25 46.2031 89.8125 46.2031H99.3281C99.7031 46.2031 99.8906 46.4531 99.8906 46.9531L99.9844 112.438C99.9844 112.812 99.8281 113 99.5156 113H91.0781L74.4375 77.6562L75.1406 112.25C75.1406 112.75 74.8438 113 74.25 113Z" fill="#1189E4"/>
<path d="M30 110.385C43.2548 110.385 54 96.0578 54 78.3846C54 60.7115 43.2548 46.3846 30 46.3846C16.7452 46.3846 6 60.7115 6 78.3846C6 96.0578 16.7452 110.385 30 110.385Z" stroke="#1189E4" stroke-width="10" stroke-linecap="round" stroke-linejoin="round"/>
<path d="M30 59V79L40 85.6667" stroke="#1189E4" stroke-width="3" stroke-linecap="square" stroke-linejoin="round"/>
<path d="M139.281 113H128.453C128.172 113 128.031 112.844 128.031 112.531V57.7812H115.562C115.25 57.7812 115.094 57.625 115.094 57.3125L115.188 46.5781C115.188 46.3281 115.312 46.2031 115.562 46.2031H152.031C152.375 46.2031 152.547 46.3281 152.547 46.5781V57.3125C152.547 57.625 152.422 57.7812 152.172 57.7812H139.562L139.656 112.531C139.656 112.844 139.531 113 139.281 113ZM168.578 113H157.703C157.391 113 157.234 112.844 157.234 112.531L157.328 46.5781C157.328 46.3281 157.453 46.2031 157.703 46.2031H168.484C168.734 46.2031 168.859 46.3281 168.859 46.5781L168.953 112.531C168.953 112.844 168.828 113 168.578 113ZM188.641 113H177.766C177.516 113 177.391 112.844 177.391 112.531L177.578 46.5781C177.578 46.3281 177.703 46.2031 177.953 46.2031H189.672C189.922 46.2031 190.141 46.3281 190.328 46.5781L199.094 59.2344L207.812 46.5781C208 46.3281 208.234 46.2031 208.516 46.2031H220.281C220.562 46.2031 220.703 46.3281 220.703 46.5781L220.891 112.531C220.891 112.844 220.766 113 220.516 113H209.641C209.391 113 209.266 112.844 209.266 112.531L209.172 63.5469L199.094 78.1719L189.109 63.5469L189.016 112.531C189.016 112.844 188.891 113 188.641 113ZM260.359 113H229.328C229.078 113 228.953 112.844 228.953 112.531L229.047 46.5781C229.047 46.3281 229.172 46.2031 229.422 46.2031H260.266C260.516 46.2031 260.641 46.3594 260.641 46.6719V57.4062C260.641 57.6562 260.516 57.7812 260.266 57.7812H240.578V72.7812H260.266C260.516 72.7812 260.641 72.9062 260.641 73.1562L260.734 84.0312C260.734 84.2812 260.609 84.4062 260.359 84.4062H240.578V101.188H260.359C260.609 101.188 260.734 101.344 260.734 101.656V112.625C260.734 112.875 260.609 113 260.359 113Z" fill="#1189E4"/>
</svg>
