<svg width="440" height="428" viewBox="0 0 440 428" fill="none" xmlns="http://www.w3.org/2000/svg">
<path opacity="0.03" d="M69.1825 428C23.1004 428 -10.3403 383.897 2.93595 340.035C10.4438 315.23 25.3595 291.027 53.7247 276.347C131.347 236.176 124.509 247.191 161.097 179.686C197.686 112.182 296.852 96.1679 348.813 143.718C422.306 210.973 372.871 264.551 419.38 310.78C419.864 311.262 420.342 311.746 420.814 312.233C462.837 355.603 431.214 428 370.637 428H69.1825Z" fill="black"/>
<path d="M265.893 189.938V153.958H92.8989V189.938C92.9008 208.752 99.1094 227.047 110.573 242.019C122.037 256.99 138.123 267.812 156.367 272.826C159.045 273.573 161.404 275.17 163.084 277.374C164.764 279.577 165.673 282.266 165.673 285.03C165.673 287.795 164.764 290.484 163.084 292.687C161.404 294.891 159.045 296.488 156.367 297.235C138.123 302.249 122.036 313.071 110.572 328.043C99.1082 343.015 92.9 361.311 92.8989 380.126V416.107H265.893V380.126C265.891 361.311 259.682 343.016 248.219 328.045C236.755 313.074 220.669 302.252 202.425 297.237C199.746 296.491 197.387 294.894 195.707 292.69C194.027 290.487 193.117 287.798 193.117 285.033C193.117 282.268 194.027 279.579 195.707 277.376C197.387 275.173 199.746 273.576 202.425 272.829C220.669 267.815 236.755 256.993 248.219 242.021C259.683 227.05 265.891 208.755 265.893 189.941" fill="#367CFF"/>
<path opacity="0.8" d="M265.893 189.938V153.958H92.8989V189.938C92.9008 208.752 99.1094 227.047 110.573 242.019C122.037 256.99 138.123 267.812 156.367 272.826C159.045 273.573 161.404 275.17 163.084 277.374C164.764 279.577 165.673 282.266 165.673 285.03C165.673 287.795 164.764 290.484 163.084 292.687C161.404 294.891 159.045 296.488 156.367 297.235C138.123 302.249 122.036 313.071 110.572 328.043C99.1082 343.015 92.9 361.311 92.8989 380.126V416.107H265.893V380.126C265.891 361.311 259.682 343.016 248.219 328.045C236.755 313.074 220.669 302.252 202.425 297.237C199.746 296.491 197.387 294.894 195.707 292.69C194.027 290.487 193.117 287.798 193.117 285.033C193.117 282.268 194.027 279.579 195.707 277.376C197.387 275.173 199.746 273.576 202.425 272.829C220.669 267.815 236.755 256.993 248.219 242.021C259.683 227.05 265.891 208.755 265.893 189.941" fill="white"/>
<path d="M266.44 416.651H92.3525V380.126C92.3824 361.2 98.641 342.802 110.173 327.741C121.706 312.68 137.879 301.783 156.224 296.713C158.787 295.998 161.044 294.469 162.652 292.36C164.26 290.252 165.131 287.678 165.131 285.032C165.131 282.386 164.26 279.813 162.652 277.704C161.044 275.595 158.787 274.067 156.224 273.352C137.879 268.281 121.706 257.384 110.174 242.323C98.6415 227.262 92.3827 208.865 92.3525 189.938V153.415H266.44V189.939C266.41 208.865 260.151 227.262 248.619 242.323C237.087 257.383 220.915 268.281 202.57 273.352C200.007 274.067 197.75 275.595 196.142 277.704C194.534 279.813 193.664 282.386 193.664 285.032C193.664 287.678 194.534 290.252 196.142 292.36C197.75 294.469 200.007 295.998 202.57 296.713C220.915 301.784 237.087 312.681 248.619 327.742C260.151 342.803 266.41 361.2 266.44 380.126V416.651ZM93.4476 415.564H265.347V380.126C265.317 361.438 259.137 343.272 247.75 328.4C236.363 313.528 220.394 302.768 202.28 297.76C199.486 296.982 197.025 295.317 195.272 293.019C193.519 290.721 192.57 287.916 192.57 285.032C192.57 282.148 193.519 279.343 195.272 277.045C197.025 274.748 199.486 273.082 202.28 272.304C220.394 267.297 236.363 256.536 247.75 241.665C259.137 226.793 265.317 208.627 265.347 189.939V154.501H93.4455V189.938C93.4753 208.627 99.6554 226.793 111.043 241.665C122.43 256.537 138.399 267.297 156.514 272.304C159.308 273.083 161.769 274.748 163.521 277.046C165.274 279.344 166.223 282.149 166.223 285.032C166.223 287.916 165.274 290.721 163.521 293.019C161.769 295.317 159.308 296.982 156.514 297.76C138.399 302.767 122.43 313.528 111.042 328.399C99.655 343.271 93.475 361.437 93.4455 380.126L93.4476 415.564Z" fill="#292A2E"/>
<path d="M275.943 147.408C275.944 149.12 275.27 150.763 274.066 151.987C272.862 153.211 271.223 153.917 269.502 153.954C269.452 153.958 269.405 153.958 269.354 153.958H89.7317C89.6808 153.958 89.6338 153.958 89.5836 153.954C87.8493 153.916 86.2004 153.199 84.9945 151.96C83.7887 150.72 83.1233 149.058 83.1428 147.334C83.1623 145.61 83.8651 143.963 85.0987 142.751C86.3322 141.538 87.997 140.859 89.7317 140.859H269.352C270.217 140.859 271.074 141.028 271.874 141.357C272.673 141.686 273.4 142.168 274.012 142.776C274.624 143.384 275.11 144.106 275.441 144.901C275.772 145.696 275.943 146.548 275.943 147.408Z" fill="#292A2E"/>
<path d="M182.453 355.75V277.983C182.386 275.029 183.297 272.134 185.045 269.744C186.794 267.355 189.283 265.601 192.132 264.754C222.741 256.382 251.218 229.089 252.617 197.738C252.692 196.057 251.206 194.95 249.513 194.95H109.277C107.583 194.95 106.099 196.057 106.173 197.738C107.572 229.089 136.049 256.382 166.659 264.754C170.991 265.945 176.34 271.222 176.34 278.178V355.755C176.34 361.35 174.22 366.1 170.241 370.056C166.955 373.322 117.474 416.106 117.474 416.106H241.318C241.318 416.106 191.38 372.834 188.63 370.099C184.65 366.146 182.453 361.343 182.453 355.75Z" fill="#FAFAFA"/>
<path d="M275.989 420.944C275.99 422.656 275.316 424.3 274.112 425.523C272.908 426.747 271.27 427.453 269.548 427.49C269.498 427.493 269.451 427.493 269.401 427.493H89.7787C89.7284 427.493 89.6814 427.493 89.6311 427.49C87.897 427.451 86.248 426.735 85.0422 425.495C83.8363 424.256 83.1709 422.594 83.1904 420.87C83.2098 419.146 83.9125 417.499 85.1459 416.286C86.3794 415.074 88.0441 414.394 89.7787 414.395H269.401C271.148 414.395 272.824 415.085 274.06 416.313C275.295 417.541 275.989 419.207 275.989 420.944Z" fill="#292A2E"/>
<path d="M320.577 427.098C362.989 427.098 397.37 392.923 397.37 350.767C397.37 308.611 362.989 274.437 320.577 274.437C278.166 274.437 243.785 308.611 243.785 350.767C243.785 392.923 278.166 427.098 320.577 427.098Z" fill="white"/>
<path d="M342.979 424.182C302.252 436.458 259.069 413.515 246.717 373.033C234.365 332.551 257.449 289.629 298.176 277.353C338.902 265.077 382.087 288.018 394.437 328.5C406.787 368.982 383.705 411.904 342.979 424.182ZM298.402 278.092C258.087 290.246 235.235 332.736 247.463 372.808C259.691 412.881 302.437 435.595 342.753 423.441C383.069 411.287 405.919 368.797 393.692 328.725C381.465 288.652 338.718 265.938 298.402 278.092Z" fill="#292A2E"/>
<path opacity="0.45" d="M320.577 417.969C357.917 417.969 388.187 387.882 388.187 350.767C388.187 313.652 357.917 283.564 320.577 283.564C283.238 283.564 252.968 313.652 252.968 350.767C252.968 387.882 283.238 417.969 320.577 417.969Z" fill="#1189E4"/>
<path d="M320.577 354.807C322.823 354.807 324.643 352.998 324.643 350.767C324.643 348.535 322.823 346.726 320.577 346.726C318.332 346.726 316.512 348.535 316.512 350.767C316.512 352.998 318.332 354.807 320.577 354.807Z" fill="#292A2E"/>
<path d="M370.692 377.711C370.643 377.726 370.591 377.731 370.54 377.726C370.49 377.721 370.44 377.706 370.395 377.682L320.394 351.108C320.332 351.075 320.28 351.026 320.243 350.966C320.207 350.906 320.188 350.837 320.188 350.767L320.171 311.585C320.171 311.483 320.212 311.384 320.285 311.312C320.358 311.239 320.457 311.198 320.56 311.198C320.664 311.198 320.763 311.239 320.836 311.312C320.909 311.384 320.95 311.483 320.95 311.585L320.967 350.535L370.762 377C370.83 377.036 370.886 377.091 370.922 377.159C370.959 377.226 370.974 377.303 370.966 377.379C370.959 377.456 370.929 377.528 370.88 377.587C370.831 377.646 370.766 377.69 370.692 377.712V377.711Z" fill="#292A2E"/>
<path d="M116.976 241.198C116.976 241.198 115.38 249.42 107.635 249.879C99.8893 250.337 101.569 256.471 101.569 256.471H131.169V241.771L116.976 241.198Z" fill="#182D72"/>
<path d="M133.864 216.463C133.864 216.463 136.084 224.542 129.337 228.351C122.59 232.16 126.823 236.928 126.823 236.928L153.381 223.94L146.854 210.75L133.864 216.463Z" fill="#182D72"/>
<path d="M131.054 221.805L111.041 146.749C109.522 138.457 111.806 134.863 115.33 131.371C121.517 125.237 147.154 112.181 147.154 112.181L177.91 112.098C186.065 112.098 194.085 120.092 194.085 128.198C194.085 136.303 185.794 143.178 177.637 143.178L139.762 146.937L150.029 215.661L131.054 221.805Z" fill="#262626"/>
<path d="M150.029 215.658L145.987 188.603L125.511 201.018L131.054 221.805L150.029 215.658Z" fill="#0C0C0C"/>
<path d="M154.67 127.37C154.67 127.37 141.741 130.235 128.936 142.962C121.173 150.679 121.81 164.644 122.974 191.502L135.692 172.831L149.641 147.825L154.67 127.37Z" fill="#0C0C0C"/>
<path d="M199.436 112.089L178.549 111.991L178.541 112.263H172.216C172.216 112.263 156.374 126.754 143.619 135.885C134.341 142.526 128.681 148.858 128.192 155.759C126.998 172.582 113.533 244.329 113.533 244.329L133.797 247.379L151.58 161.636C151.58 161.636 179.387 148.894 185.819 144.46C191.876 140.284 196.154 138.67 198.158 134.113C201.62 126.245 199.436 112.089 199.436 112.089Z" fill="#262626"/>
<path d="M176.003 117.32L142.119 117.765L161.126 129.05L176.945 120.932C177.326 120.728 177.628 120.403 177.802 120.009C177.975 119.615 178.011 119.174 177.902 118.758C177.793 118.341 177.547 117.973 177.203 117.712C176.859 117.451 176.436 117.313 176.003 117.32Z" fill="#292A2E"/>
<path opacity="0.2" d="M176.003 117.32L142.119 117.765L161.126 129.05L176.945 120.932C177.326 120.728 177.628 120.403 177.802 120.009C177.975 119.615 178.011 119.174 177.902 118.758C177.793 118.341 177.547 117.973 177.203 117.712C176.859 117.451 176.436 117.313 176.003 117.32Z" fill="white"/>
<path d="M142.313 56.8962L132.73 87.7637L113.533 112.746L124.747 125.541L147.585 100.205C148.638 99.3778 149.461 98.298 149.976 97.0672L150.333 96.2117L163.523 64.4871L142.313 56.8962Z" fill="#1189E4"/>
<path d="M159.345 48.5569C159.405 48.5493 160.065 59.4459 172.801 58.497C181.617 57.8403 184.76 48.5428 184.963 48.5428C184.012 48.3418 182.837 48.0371 182.37 47.9322C181.353 47.6975 180.431 47.1605 179.728 46.3925C179.026 45.6245 178.575 44.662 178.436 43.633C178.178 42.0888 178.615 34.1872 178.48 32.6245L164.947 35.6266C165.136 38.927 166.46 46.5781 161.821 47.9322C161.049 48.1555 160.218 48.3613 159.345 48.5569Z" fill="#DE9C83"/>
<path opacity="0.52" d="M164.759 44.8048C164.971 44.1256 165.107 43.4255 165.166 42.7168C165.315 41.0998 165.285 39.4714 165.077 37.8608C167.828 37.4913 170.419 36.3621 172.557 34.6018C172.808 35.5252 174.19 39.555 173.808 40.4317C173.083 42.0911 169.685 44.8048 164.759 44.8048Z" fill="#0C0C0C"/>
<path d="M167.551 42.6477C172.89 42.1719 179.28 38.8189 179.372 31.6153L179.455 25.1152C179.548 17.9116 175.816 12.0247 168.992 11.9373C162.169 11.8498 156.993 17.6265 156.901 24.8317L156.864 27.7105C156.87 28.6988 156.943 29.6857 157.083 30.6642C157.433 33.2525 157.975 37.1888 159.743 39.8509C161.41 42.362 164.14 42.9519 167.551 42.6477Z" fill="#DE9C83"/>
<path opacity="0.52" d="M165.073 36.0635C163.972 36.1131 162.874 35.9045 161.868 35.4546C161.828 35.4356 161.797 35.4019 161.781 35.3606C161.765 35.3193 161.766 35.2735 161.783 35.2329C161.801 35.1922 161.834 35.1599 161.874 35.1426C161.915 35.1253 161.961 35.1244 162.003 35.1401C164.17 36.0586 166.138 35.9239 167.693 34.7511C167.725 34.7264 167.757 34.7034 167.791 34.6822C167.831 34.6595 167.878 34.6535 167.922 34.6654C167.966 34.6772 168.004 34.706 168.026 34.7454C168.049 34.7848 168.055 34.8316 168.043 34.8755C168.031 34.9193 168.002 34.9567 167.963 34.9793C167.95 34.9869 167.93 35.0026 167.901 35.0238C167.084 35.6425 166.099 36.0045 165.073 36.0635Z" fill="#0C0C0C"/>
<path opacity="0.52" d="M165.125 37.6863C164.926 37.6983 164.726 37.6936 164.528 37.6722C164.483 37.6674 164.441 37.6449 164.412 37.6096C164.384 37.5743 164.37 37.5291 164.375 37.4839C164.38 37.4388 164.402 37.3974 164.438 37.3688C164.473 37.3402 164.519 37.3268 164.564 37.3316C164.876 37.3887 165.197 37.3789 165.505 37.3029C165.813 37.227 166.101 37.0866 166.35 36.8911C166.382 36.8589 166.426 36.8409 166.472 36.8408C166.517 36.8408 166.561 36.8587 166.593 36.8908C166.626 36.9229 166.644 36.9664 166.644 37.0117C166.644 37.0571 166.626 37.1007 166.594 37.1328C166.183 37.4805 165.664 37.6761 165.125 37.6863Z" fill="#0C0C0C"/>
<path d="M159.154 29.0929C159.618 29.0929 159.995 28.7189 159.995 28.2575C159.995 27.7961 159.618 27.4221 159.154 27.4221C158.69 27.4221 158.314 27.7961 158.314 28.2575C158.314 28.7189 158.69 29.0929 159.154 29.0929Z" fill="#0C0C0C"/>
<path d="M167.366 28.5807C167.831 28.5807 168.207 28.2067 168.207 27.7453C168.207 27.2839 167.831 26.9099 167.366 26.9099C166.902 26.9099 166.526 27.2839 166.526 27.7453C166.526 28.2067 166.902 28.5807 167.366 28.5807Z" fill="#0C0C0C"/>
<path d="M178.92 33.8044C180.994 33.831 182.703 31.6469 182.73 29.5855C182.756 27.5242 181.09 26.3667 179.014 26.3401L177.928 27.7105L177.136 33.7848L178.92 33.8044Z" fill="#DE9C83"/>
<path d="M143.523 72.5039C143.924 77.1876 146.768 106.412 147.153 112.182H199.413C199.714 106.978 201.062 84.2234 202.2 74.047C203.287 64.3367 204.811 59.9174 203.559 56.9001C201.351 51.577 194.324 49.2012 189.564 48.5608C186.658 48.1697 182.286 47.8894 182.286 47.8894C182.286 47.8894 181.917 55.3309 173.092 55.7448C161.079 56.3086 161.881 47.8894 161.821 47.8894C159.876 47.8894 149.282 49.2957 146.633 51.0121C145.123 51.9249 143.878 53.2128 143.02 54.749C142.163 56.2852 141.723 58.0168 141.743 59.7735C141.693 63.2677 143.067 67.1911 143.523 72.5039Z" fill="#1189E4"/>
<path d="M146.172 100.666C146.135 100.666 146.099 100.652 146.072 100.627C146.045 100.602 146.028 100.567 146.024 100.531L144.044 78.0219C144.042 78.0024 144.044 77.9826 144.05 77.9638C144.056 77.945 144.065 77.9275 144.077 77.9123C144.09 77.8971 144.106 77.8846 144.123 77.8754C144.141 77.8663 144.16 77.8607 144.179 77.859C144.199 77.8566 144.219 77.8582 144.238 77.8638C144.257 77.8693 144.275 77.8787 144.291 77.8913C144.306 77.9039 144.318 77.9195 144.328 77.9371C144.337 77.9547 144.342 77.974 144.343 77.9937L146.324 100.502C146.325 100.522 146.323 100.541 146.317 100.56C146.312 100.578 146.302 100.595 146.289 100.61C146.277 100.625 146.261 100.638 146.244 100.646C146.227 100.655 146.208 100.661 146.188 100.662L146.172 100.666Z" fill="#0C0C0C"/>
<path d="M149.962 113.74L157.137 107.953L155.93 108.293C155.538 108.395 155.122 108.345 154.765 108.153C154.409 107.962 154.139 107.643 154.01 107.261C153.95 107.062 153.932 106.852 153.957 106.646C153.981 106.439 154.048 106.24 154.152 106.06C154.257 105.879 154.397 105.722 154.565 105.598C154.732 105.474 154.924 105.384 155.127 105.336L170.202 101.691L171.499 106.465C171.901 107.947 171.849 109.515 171.349 110.967C170.849 112.42 169.925 113.691 168.693 114.618L163.107 118.808C162.821 119.031 162.467 119.149 162.103 119.142C161.739 119.136 161.389 119.004 161.112 118.77C160.866 118.554 160.697 118.265 160.628 117.946C160.559 117.626 160.595 117.294 160.73 116.996C160.712 116.991 160.696 116.983 160.682 116.972C160.668 116.96 160.656 116.946 160.648 116.93C160.639 116.914 160.634 116.897 160.633 116.879C160.631 116.861 160.634 116.843 160.639 116.826L159.61 117.601C159.293 117.85 158.891 117.971 158.487 117.937C158.084 117.904 157.708 117.719 157.436 117.421C157.202 117.146 157.073 116.798 157.072 116.438C157.071 116.078 157.197 115.729 157.43 115.452C157.413 115.45 157.398 115.445 157.384 115.437L156.961 115.755C156.675 115.978 156.32 116.096 155.956 116.089C155.593 116.082 155.243 115.951 154.966 115.717C154.667 115.454 154.482 115.087 154.451 114.692C154.419 114.297 154.542 113.905 154.794 113.599C154.789 113.59 154.784 113.581 154.78 113.571L151.792 115.98C151.644 116.1 151.473 116.189 151.29 116.243C151.108 116.297 150.916 116.315 150.726 116.295C150.536 116.276 150.352 116.219 150.185 116.129C150.017 116.039 149.869 115.916 149.748 115.769C149.628 115.622 149.538 115.453 149.484 115.271C149.43 115.089 149.412 114.898 149.432 114.71C149.451 114.521 149.508 114.338 149.599 114.172C149.69 114.005 149.813 113.858 149.961 113.738L149.962 113.74Z" fill="#E98862"/>
<path opacity="0.2" d="M154.963 113.658C154.979 113.652 154.994 113.644 155.007 113.633L157.882 111.259C157.91 111.234 157.928 111.2 157.931 111.162C157.934 111.125 157.922 111.088 157.898 111.059C157.874 111.03 157.839 111.012 157.802 111.008C157.764 111.004 157.726 111.014 157.697 111.038L154.821 113.412C154.795 113.433 154.778 113.464 154.772 113.497C154.766 113.53 154.772 113.564 154.788 113.594C154.805 113.623 154.832 113.646 154.864 113.657C154.896 113.669 154.931 113.669 154.963 113.658Z" fill="#0A0A0A"/>
<path opacity="0.2" d="M157.497 115.451C157.512 115.445 157.527 115.437 157.539 115.427L159.814 113.581C159.842 113.556 159.859 113.521 159.862 113.484C159.864 113.448 159.853 113.411 159.829 113.382C159.806 113.354 159.772 113.335 159.735 113.33C159.698 113.326 159.661 113.336 159.631 113.358L157.356 115.205C157.33 115.226 157.312 115.256 157.306 115.289C157.3 115.323 157.306 115.357 157.323 115.386C157.339 115.416 157.366 115.438 157.398 115.45C157.43 115.462 157.465 115.462 157.497 115.451Z" fill="#0A0A0A"/>
<path opacity="0.2" d="M160.824 117C160.841 116.994 160.856 116.986 160.87 116.974L161.923 116.076C161.937 116.064 161.949 116.049 161.958 116.032C161.966 116.015 161.971 115.997 161.973 115.978C161.974 115.959 161.972 115.94 161.966 115.922C161.96 115.904 161.95 115.888 161.938 115.873C161.926 115.859 161.911 115.848 161.894 115.839C161.877 115.831 161.858 115.826 161.839 115.824C161.821 115.823 161.802 115.825 161.784 115.831C161.766 115.837 161.749 115.846 161.735 115.859L160.681 116.756C160.656 116.778 160.639 116.809 160.633 116.842C160.628 116.875 160.634 116.909 160.651 116.938C160.668 116.967 160.694 116.989 160.726 117C160.758 117.012 160.792 117.012 160.824 117.001V117Z" fill="#0A0A0A"/>
<path d="M213.382 99.5667L213.328 99.3234L203.79 57.3904L184.919 61.6304L192.364 94.3642L162.539 101.647L166.209 118.377L205.953 110.841C206.044 110.823 206.172 110.796 206.265 110.776C207.473 110.505 208.616 110 209.627 109.29C210.638 108.579 211.499 107.678 212.16 106.637C212.821 105.596 213.269 104.436 213.479 103.223C213.689 102.01 213.656 100.767 213.382 99.5667Z" fill="#1189E4"/>
<path d="M162.393 101.678C162.385 101.64 162.392 101.601 162.412 101.569C162.433 101.536 162.465 101.513 162.502 101.504L192.193 94.2562L187.365 73.0615C187.357 73.0233 187.364 72.9832 187.385 72.95C187.406 72.9169 187.439 72.8934 187.478 72.8847C187.516 72.8761 187.556 72.883 187.59 72.9039C187.623 72.9249 187.647 72.9581 187.655 72.9964L192.516 94.3322C192.524 94.37 192.518 94.4097 192.497 94.4427C192.477 94.4758 192.444 94.4995 192.406 94.5087L162.713 101.757C162.713 101.757 162.912 102.619 162.969 102.909C162.972 102.946 162.96 102.983 162.936 103.012C162.912 103.041 162.878 103.059 162.841 103.063C162.804 103.068 162.766 103.058 162.737 103.035C162.707 103.013 162.687 102.979 162.681 102.943C162.613 102.625 162.393 101.678 162.393 101.678Z" fill="#0C0C0C"/>
<path d="M163.557 125.036L152.09 90.0009C151.888 89.3852 151.496 88.8487 150.969 88.4682C150.442 88.0877 149.807 87.8827 149.156 87.8826H102.44C101.953 87.8825 101.473 87.997 101.039 88.2167C100.605 88.4365 100.229 88.7552 99.9431 89.1469C99.6569 89.5385 99.4681 89.9919 99.3921 90.4701C99.316 90.9482 99.355 91.4374 99.5057 91.8977L110.973 126.932C111.174 127.548 111.566 128.085 112.093 128.465C112.62 128.846 113.255 129.051 113.907 129.051H160.623C161.11 129.051 161.59 128.936 162.024 128.716C162.458 128.496 162.833 128.178 163.119 127.786C163.405 127.394 163.594 126.941 163.67 126.463C163.746 125.985 163.707 125.496 163.557 125.036Z" fill="#292A2E"/>
<path opacity="0.2" d="M163.557 125.036L152.09 90.0009C151.888 89.3852 151.496 88.8487 150.969 88.4682C150.442 88.0877 149.807 87.8827 149.156 87.8826H102.44C101.953 87.8825 101.473 87.997 101.039 88.2167C100.605 88.4365 100.229 88.7552 99.9431 89.1469C99.6569 89.5385 99.4681 89.9919 99.3921 90.4701C99.316 90.9482 99.355 91.4374 99.5057 91.8977L110.973 126.932C111.174 127.548 111.566 128.085 112.093 128.465C112.62 128.846 113.255 129.051 113.907 129.051H160.623C161.11 129.051 161.59 128.936 162.024 128.716C162.458 128.496 162.833 128.178 163.119 127.786C163.405 127.394 163.594 126.941 163.67 126.463C163.746 125.985 163.707 125.496 163.557 125.036Z" fill="white"/>
<path d="M130.186 113.336C132.892 113.336 135.085 111.156 135.085 108.466C135.085 105.777 132.892 103.596 130.186 103.596C127.48 103.596 125.286 105.777 125.286 108.466C125.286 111.156 127.48 113.336 130.186 113.336Z" fill="white"/>
<path d="M157.052 22.1571C157.052 22.1571 155.424 4.32786 170.306 3.8597C172.736 3.9122 175.091 5.00211 177.032 6.97278C177.309 5.24597 177.964 3.67067 178.911 2.44999C179.858 1.22931 181.055 0.419222 182.347 0.12418C183.639 -0.170863 184.966 0.0626665 186.159 0.794658C187.352 1.52665 188.354 2.72354 189.038 4.231C189.721 5.73846 190.054 7.48738 189.993 9.25224C189.932 11.0171 189.481 12.717 188.697 14.1327C187.913 15.5485 186.833 16.6151 185.595 17.1952C184.357 17.7752 183.019 17.8421 181.753 17.3871C181.786 17.6395 181.818 17.8919 181.844 18.1525C182.953 29.1599 177.326 36.7363 177.326 36.7363C177.326 36.7363 175.217 35.5173 172.662 17.9916C169.666 19.3689 162.755 22.2202 157.052 22.1571Z" fill="#0F1011"/>
</svg>
