<svg width="440" height="420" viewBox="0 0 440 420" fill="none" xmlns="http://www.w3.org/2000/svg">
<path d="M124.564 418.04C55.7693 418.04 3.05176e-05 412.992 3.05176e-05 406.764C3.05176e-05 400.536 55.7693 395.488 124.564 395.488C193.359 395.488 249.129 400.536 249.129 406.764C249.129 412.992 193.359 418.04 124.564 418.04Z" fill="white"/>
<path opacity="0.1" d="M124.564 418.04C55.7693 418.04 3.05176e-05 412.992 3.05176e-05 406.764C3.05176e-05 400.536 55.7693 395.488 124.564 395.488C193.359 395.488 249.129 400.536 249.129 406.764C249.129 412.992 193.359 418.04 124.564 418.04Z" fill="#000910"/>
<path d="M331.346 239.079H371.052V250.413H331.346V239.079Z" fill="#F4F4F4"/>
<path opacity="0.05" d="M360.517 239.079H365.72V250.413H360.517V239.079Z" fill="#292A2E"/>
<path d="M336.42 241.542H358.053V248.259H336.42V241.542Z" fill="white"/>
<path d="M299.676 240.558L336.569 224.75L341.193 235.136L304.3 250.944L299.676 240.558Z" fill="#F4F4F4"/>
<path opacity="0.05" d="M299.676 240.558L336.569 224.75L341.193 235.136L304.3 250.944L299.676 240.558Z" fill="#292A2E"/>
<path d="M304.63 238.435L309.464 236.363L314.089 246.75L309.254 248.821L304.63 238.435Z" fill="white"/>
<path d="M312.76 237.64L332.86 229.027L335.6 235.182L315.5 243.795L312.76 237.64Z" fill="white"/>
<path opacity="0.05" d="M299.607 382.656H309.585V389.193H299.607V382.656Z" fill="#292A2E"/>
<path opacity="0.05" d="M401.621 382.656H411.599V389.193H401.621V382.656Z" fill="#292A2E"/>
<path d="M290.46 250.944H420.745V382.435H290.46V250.944Z" fill="#F4F4F4"/>
<path opacity="0.03" d="M290.46 250.944H420.745V382.435H290.46V250.944Z" fill="#292A2E"/>
<path d="M266.316 250.944H396.602V382.435H266.316V250.944Z" fill="#F4F4F4"/>
<path opacity="0.05" d="M275.463 382.656H285.441V389.193H275.463V382.656Z" fill="#292A2E"/>
<path opacity="0.05" d="M377.477 382.656H387.455V389.193H377.477V382.656Z" fill="#292A2E"/>
<path opacity="0.7" d="M271.207 257.103H391.711V282.365H271.207V257.103Z" fill="white"/>
<path opacity="0.7" d="M271.207 288.548H391.711V313.81H271.207V288.548Z" fill="white"/>
<path opacity="0.7" d="M271.207 319.993H391.711V345.255H271.207V319.993Z" fill="white"/>
<path opacity="0.05" d="M331.459 273.269C329.469 273.269 327.856 271.686 327.856 269.734C327.856 267.782 329.469 266.199 331.459 266.199C333.448 266.199 335.062 267.782 335.062 269.734C335.062 271.686 333.448 273.269 331.459 273.269Z" fill="#292A2E"/>
<path opacity="0.05" d="M331.459 304.713C329.469 304.713 327.856 303.131 327.856 301.179C327.856 299.227 329.469 297.644 331.459 297.644C333.448 297.644 335.062 299.227 335.062 301.179C335.062 303.131 333.448 304.713 331.459 304.713Z" fill="#292A2E"/>
<path opacity="0.05" d="M331.459 336.159C329.469 336.159 327.856 334.577 327.856 332.625C327.856 330.672 329.469 329.09 331.459 329.09C333.448 329.09 335.062 330.672 335.062 332.625C335.062 334.577 333.448 336.159 331.459 336.159Z" fill="#292A2E"/>
<path opacity="0.7" d="M271.207 352.146H391.711V377.409H271.207V352.146Z" fill="white"/>
<path opacity="0.05" d="M331.459 368.313C329.469 368.313 327.856 366.73 327.856 364.778C327.856 362.826 329.469 361.243 331.459 361.243C333.448 361.243 335.062 362.826 335.062 364.778C335.062 366.73 333.448 368.313 331.459 368.313Z" fill="#292A2E"/>
<path d="M374.496 120.435L297.458 120.435V22.0607L374.496 22.0607V120.435Z" fill="#F4F4F4"/>
<path d="M374.496 22.0605H376.995V120.434H374.496V22.0605Z" fill="#F4F4F4"/>
<path opacity="0.05" d="M374.496 22.0605H376.995V120.434H374.496V22.0605Z" fill="#292A2E"/>
<path opacity="0.05" d="M360.462 102.515H311.491V39.9807L360.462 39.9807V102.515Z" fill="#292A2E"/>
<path opacity="0.03" d="M360.462 102.515H357.91V39.9807H360.462V102.515Z" fill="#292A2E"/>
<path d="M437.501 207.004H374.497V144.626H437.501V207.004Z" fill="#F4F4F4"/>
<path opacity="0.05" d="M426.024 195.641H385.974V155.989H426.024V195.641Z" fill="#292A2E"/>
<path d="M437.501 144.626H440V207.005H437.501V144.626Z" fill="#F4F4F4"/>
<path opacity="0.05" d="M437.501 144.626H440V207.005H437.501V144.626Z" fill="#292A2E"/>
<path opacity="0.03" d="M426.024 195.641H423.472V155.989H426.024V195.641Z" fill="#292A2E"/>
<path d="M53.3066 21.8262H214.074V179.546H53.3066V21.8262Z" fill="#F4F4F4"/>
<path d="M214.074 21.8262H215.916V179.546H214.074V21.8262Z" fill="#F4F4F4"/>
<path opacity="0.05" d="M214.074 21.8262H215.916V179.546H214.074V21.8262Z" fill="#292A2E"/>
<path opacity="0.05" d="M175.127 130.508V89.2427H140.672V113.217H87.3018V155.665H64.6183V179.545H87.3018H91.6714H206.34V130.508H175.127Z" fill="#292A2E"/>
<path opacity="0.34" d="M145.095 93.7231H170.186V98.2034H145.095V93.7231Z" fill="#FFFFFA"/>
<path opacity="0.34" d="M145.095 103.008H170.186V107.488H145.095V103.008Z" fill="#FFFFFA"/>
<path opacity="0.34" d="M145.095 112.292H170.186V116.772H145.095V112.292Z" fill="#FFFFFA"/>
<path opacity="0.34" d="M197.266 134.856H201.891V139.337H197.266V134.856Z" fill="#FFFFFA"/>
<path opacity="0.34" d="M197.266 144.141H201.891V148.621H197.266V144.141Z" fill="#FFFFFA"/>
<path opacity="0.34" d="M197.266 153.425H201.891V157.905H197.266V153.425Z" fill="#FFFFFA"/>
<path opacity="0.34" d="M188.711 134.856H193.336V139.337H188.711V134.856Z" fill="#FFFFFA"/>
<path opacity="0.34" d="M188.711 144.141H193.336V148.621H188.711V144.141Z" fill="#FFFFFA"/>
<path opacity="0.34" d="M188.711 153.425H193.336V157.905H188.711V153.425Z" fill="#FFFFFA"/>
<path opacity="0.34" d="M180.387 134.856H185.012V139.337H180.387V134.856Z" fill="#FFFFFA"/>
<path opacity="0.34" d="M180.387 144.141H185.012V148.621H180.387V144.141Z" fill="#FFFFFA"/>
<path opacity="0.34" d="M180.387 153.425H185.012V157.905H180.387V153.425Z" fill="#FFFFFA"/>
<path d="M214.074 99.8009H181.725V21.8257H179.049V99.8009H91.6714V21.8257H88.9963V99.8009H53.3066V102.425H88.9963V179.546H91.6714V102.425H179.049V179.546H181.725V102.425H214.074V99.8009Z" fill="white"/>
<path d="M46.9025 179.355H220.478V184.6H46.9025V179.355Z" fill="#F4F4F4"/>
<path opacity="0.1" d="M46.9025 179.355H220.478V184.6H46.9025V179.355Z" fill="#292A2E"/>
<path opacity="0.1" d="M220.478 179.355H222.984V184.6H220.478V179.355Z" fill="#292A2E"/>
<path opacity="0.1" d="M220.478 179.355H222.984V184.6H220.478V179.355Z" fill="#292A2E"/>
<path d="M225.395 6.06836H379.377C386.511 6.06836 392.294 11.7417 392.294 18.7401V202.127C392.294 209.125 386.511 214.799 379.377 214.799H225.395C218.262 214.799 212.479 209.125 212.479 202.127V18.7401C212.479 11.7417 218.262 6.06836 225.395 6.06836Z" fill="#292A2E"/>
<path d="M219.704 0.484863H373.686C380.819 0.484863 386.602 6.15821 386.602 13.1566V196.544C386.602 203.542 380.819 209.215 373.686 209.215H219.704C212.57 209.215 206.787 203.542 206.787 196.544V13.1566C206.787 6.15821 212.57 0.484863 219.704 0.484863Z" fill="white"/>
<path d="M219.704 209.7H373.686C377.241 209.696 380.65 208.309 383.165 205.842C385.679 203.376 387.093 200.031 387.097 196.543V13.1567C387.093 9.66851 385.679 6.32429 383.164 3.85776C380.65 1.39124 377.241 0.00385067 373.686 0L219.704 0C216.149 0.003979 212.74 1.39142 210.226 3.85793C207.712 6.32444 206.298 9.66859 206.294 13.1567V196.543C206.298 200.031 207.712 203.376 210.226 205.842C212.74 208.309 216.149 209.696 219.704 209.7ZM373.686 0.969865C376.979 0.973459 380.137 2.25858 382.466 4.54328C384.795 6.82797 386.104 9.92565 386.108 13.1567V196.543C386.104 199.774 384.795 202.872 382.466 205.157C380.137 207.441 376.979 208.726 373.686 208.73H219.704C216.411 208.726 213.253 207.441 210.924 205.156C208.596 202.872 207.286 199.774 207.282 196.543V13.1567C207.286 9.9257 208.596 6.82802 210.924 4.54331C213.253 2.25859 216.411 0.973459 219.704 0.969865H373.686Z" fill="#292A2E"/>
<path d="M388.676 235.456C370.965 235.456 356.608 221.371 356.608 203.995C356.608 186.62 370.965 172.534 388.676 172.534C406.388 172.534 420.745 186.62 420.745 203.995C420.745 221.371 406.388 235.456 388.676 235.456Z" fill="#292A2E"/>
<path d="M395.334 199.889C395.756 199.889 396.161 199.725 396.459 199.432C396.758 199.139 396.926 198.742 396.926 198.328V190.767C396.926 186.586 393.225 183.185 388.677 183.185C384.128 183.185 380.427 186.586 380.427 190.767V197.809C380.423 198.016 380.462 198.222 380.54 198.415C380.618 198.607 380.735 198.783 380.883 198.931C381.031 199.079 381.208 199.196 381.403 199.277C381.598 199.357 381.808 199.398 382.019 199.398C382.23 199.398 382.44 199.357 382.635 199.277C382.83 199.196 383.007 199.079 383.155 198.931C383.303 198.783 383.42 198.607 383.498 198.415C383.576 198.222 383.615 198.016 383.611 197.809V190.767C383.611 188.308 385.885 186.308 388.677 186.308C391.468 186.308 393.742 188.308 393.742 190.767V198.329C393.742 198.742 393.91 199.139 394.209 199.432C394.507 199.725 394.912 199.889 395.334 199.889Z" fill="white"/>
<path d="M378.521 197.021H398.833C400.017 197.021 400.977 197.963 400.977 199.125V217.894C400.977 219.056 400.017 219.999 398.833 219.999H378.521C377.336 219.999 376.376 219.056 376.376 217.894V199.125C376.376 197.963 377.336 197.021 378.521 197.021Z" fill="white"/>
<path d="M390.699 206.652C390.699 207.024 390.592 207.389 390.391 207.704C390.19 208.02 389.903 208.274 389.562 208.437V211.485C389.562 211.715 389.469 211.935 389.303 212.098C389.138 212.26 388.913 212.352 388.679 212.352C388.445 212.352 388.22 212.26 388.055 212.098C387.889 211.935 387.796 211.715 387.796 211.485V208.437C387.471 208.282 387.195 208.045 386.995 207.75C386.795 207.455 386.679 207.113 386.66 206.759C386.64 206.406 386.718 206.053 386.884 205.739C387.05 205.424 387.299 205.159 387.605 204.971C387.911 204.783 388.263 204.679 388.624 204.669C388.985 204.66 389.342 204.745 389.658 204.916C389.974 205.088 390.237 205.339 390.421 205.644C390.604 205.95 390.701 206.297 390.701 206.652H390.699Z" fill="#292A2E"/>
<path d="M233.151 104.635H360.239C363.273 104.635 365.732 107.048 365.732 110.024V127.503C365.732 130.48 363.273 132.892 360.239 132.892H233.151C230.117 132.892 227.657 130.48 227.657 127.503V110.024C227.657 107.048 230.117 104.635 233.151 104.635Z" fill="white"/>
<path d="M233.151 133.377H360.239C361.827 133.375 363.349 132.756 364.471 131.654C365.594 130.553 366.225 129.06 366.227 127.503V110.024C366.225 108.467 365.594 106.974 364.471 105.873C363.349 104.771 361.827 104.152 360.239 104.15H233.151C231.564 104.152 230.042 104.771 228.919 105.872C227.796 106.974 227.165 108.467 227.163 110.024V127.503C227.165 129.06 227.796 130.553 228.919 131.655C230.042 132.756 231.564 133.375 233.151 133.377ZM360.239 105.12C361.565 105.121 362.835 105.638 363.773 106.558C364.71 107.477 365.237 108.724 365.238 110.024V127.503C365.237 128.803 364.71 130.05 363.772 130.969C362.835 131.888 361.565 132.405 360.239 132.407H233.151C231.826 132.405 230.555 131.888 229.618 130.969C228.681 130.05 228.153 128.803 228.152 127.503V110.024C228.153 108.724 228.68 107.477 229.618 106.558C230.555 105.638 231.826 105.121 233.151 105.12H360.239Z" fill="#292A2E"/>
<path d="M233.151 145.018H360.239C363.273 145.018 365.732 147.43 365.732 150.407V167.886C365.732 170.862 363.273 173.275 360.239 173.275H233.151C230.117 173.275 227.657 170.862 227.657 167.886V150.407C227.657 147.43 230.117 145.018 233.151 145.018Z" fill="white"/>
<path d="M233.151 173.759H360.239C361.827 173.757 363.349 173.138 364.472 172.036C365.594 170.935 366.225 169.441 366.227 167.884V150.407C366.225 148.849 365.594 147.356 364.471 146.255C363.349 145.154 361.827 144.535 360.239 144.533H233.151C231.564 144.534 230.042 145.154 228.919 146.255C227.796 147.356 227.165 148.849 227.163 150.407V167.884C227.165 169.441 227.796 170.935 228.919 172.036C230.041 173.138 231.563 173.757 233.151 173.759ZM360.239 145.503C361.565 145.504 362.835 146.021 363.772 146.941C364.71 147.86 365.237 149.106 365.238 150.407V167.884C365.237 169.184 364.71 170.43 363.772 171.35C362.835 172.269 361.565 172.786 360.239 172.788H233.151C231.826 172.786 230.555 172.269 229.618 171.35C228.68 170.431 228.153 169.184 228.152 167.884V150.407C228.153 149.106 228.68 147.86 229.618 146.94C230.555 146.021 231.826 145.504 233.151 145.503H360.239Z" fill="#292A2E"/>
<path d="M296.695 83.6173C280.399 83.6173 267.188 70.657 267.188 54.6697C267.188 38.6824 280.399 25.7222 296.695 25.7222C312.991 25.7222 326.202 38.6824 326.202 54.6697C326.202 70.657 312.991 83.6173 296.695 83.6173Z" fill="white"/>
<path d="M296.695 84.1018C302.629 84.1018 308.429 82.3756 313.363 79.1415C318.297 75.9074 322.142 71.3107 324.413 65.9326C326.683 60.5546 327.278 54.6367 326.12 48.9273C324.962 43.218 322.105 37.9736 317.909 33.8574C313.714 29.7412 308.368 26.938 302.548 25.8024C296.728 24.6667 290.696 25.2496 285.214 27.4772C279.732 29.7049 275.047 33.4774 271.75 38.3175C268.454 43.1576 266.694 48.8481 266.694 54.6693C266.703 62.4726 269.867 69.9538 275.491 75.4716C281.115 80.9893 288.741 84.0931 296.695 84.1018ZM296.695 26.2067C302.433 26.2067 308.043 27.876 312.814 31.0035C317.585 34.131 321.303 38.5763 323.499 43.7771C325.695 48.978 326.27 54.7009 325.15 60.2221C324.031 65.7433 321.268 70.8149 317.21 74.7954C313.153 78.776 307.983 81.4868 302.355 82.585C296.727 83.6833 290.894 83.1196 285.593 80.9653C280.291 78.8111 275.76 75.1629 272.572 70.4823C269.384 65.8016 267.683 60.2987 267.683 54.6693C267.691 47.1232 270.751 39.8885 276.19 34.5526C281.629 29.2166 289.003 26.2152 296.695 26.2067Z" fill="#292A2E"/>
<path opacity="0.5" d="M267.844 54.6695C267.835 61.3696 270.259 67.8539 274.68 72.9606C277.403 69.8462 280.781 67.3464 284.581 65.6329C288.381 63.9193 292.515 63.0325 296.697 63.0332C300.88 63.0339 305.012 63.9222 308.812 65.6371C312.612 67.352 315.989 69.853 318.71 72.9684C321.713 69.4922 323.815 65.3564 324.839 60.9124C325.864 56.4683 325.779 51.8475 324.593 47.4423C323.407 43.0372 321.155 38.978 318.028 35.6096C314.9 32.2413 310.99 29.6633 306.63 28.0947C302.27 26.5261 297.588 26.0133 292.982 26.5998C288.377 27.1863 283.984 28.8549 280.176 31.4636C276.369 34.0724 273.259 37.5443 271.112 41.5844C268.965 45.6245 267.844 50.1133 267.844 54.6695Z" fill="#367CFF"/>
<path d="M274.68 72.9606C277.388 76.0978 280.76 78.6187 284.561 80.3479C288.363 82.0772 292.503 82.9733 296.693 82.9741C300.884 82.9748 305.024 82.0801 308.826 80.3522C312.628 78.6243 316.001 76.1046 318.71 72.9684C315.988 69.853 312.612 67.352 308.812 65.6371C305.012 63.9222 300.879 63.0339 296.697 63.0332C292.514 63.0325 288.381 63.9193 284.581 65.6329C280.781 67.3464 277.403 69.8462 274.68 72.9606Z" fill="white"/>
<path d="M296.695 57.7521C290.254 57.7521 285.033 52.6298 285.033 46.3111C285.033 39.9924 290.254 34.8701 296.695 34.8701C303.136 34.8701 308.357 39.9924 308.357 46.3111C308.357 52.6298 303.136 57.7521 296.695 57.7521Z" fill="white"/>
<g opacity="0.4">
<path d="M355.035 162.587C353.098 162.587 351.527 161.047 351.527 159.146C351.527 157.246 353.098 155.705 355.035 155.705C356.972 155.705 358.542 157.246 358.542 159.146C358.542 161.047 356.972 162.587 355.035 162.587Z" fill="#292A2E"/>
<path d="M344.063 162.587C342.126 162.587 340.555 161.047 340.555 159.146C340.555 157.246 342.126 155.705 344.063 155.705C346 155.705 347.57 157.246 347.57 159.146C347.57 161.047 346 162.587 344.063 162.587Z" fill="#292A2E"/>
<path d="M333.091 162.587C331.154 162.587 329.583 161.047 329.583 159.146C329.583 157.246 331.154 155.705 333.091 155.705C335.028 155.705 336.598 157.246 336.598 159.146C336.598 161.047 335.028 162.587 333.091 162.587Z" fill="#292A2E"/>
<path d="M322.119 162.587C320.181 162.587 318.611 161.047 318.611 159.146C318.611 157.246 320.181 155.705 322.119 155.705C324.056 155.705 325.626 157.246 325.626 159.146C325.626 161.047 324.056 162.587 322.119 162.587Z" fill="#292A2E"/>
<path d="M311.147 162.587C309.21 162.587 307.64 161.047 307.64 159.146C307.64 157.246 309.21 155.705 311.147 155.705C313.084 155.705 314.655 157.246 314.655 159.146C314.655 161.047 313.084 162.587 311.147 162.587Z" fill="#292A2E"/>
<path d="M300.175 162.587C298.238 162.587 296.668 161.047 296.668 159.146C296.668 157.246 298.238 155.705 300.175 155.705C302.112 155.705 303.683 157.246 303.683 159.146C303.683 161.047 302.112 162.587 300.175 162.587Z" fill="#292A2E"/>
<path d="M289.203 162.587C287.266 162.587 285.695 161.047 285.695 159.146C285.695 157.246 287.266 155.705 289.203 155.705C291.14 155.705 292.711 157.246 292.711 159.146C292.711 161.047 291.14 162.587 289.203 162.587Z" fill="#292A2E"/>
</g>
<g opacity="0.3">
<path d="M351.556 118.556V119.72H356.06V118.556H351.556Z" fill="black"/>
<path d="M345.958 118.556V119.72H350.462V118.556H345.958Z" fill="black"/>
<path d="M340.36 118.556V119.72H344.865V118.556H340.36Z" fill="black"/>
<path d="M334.763 118.556V119.72H339.268V118.556H334.763Z" fill="black"/>
<path d="M329.164 118.556V119.72H333.67V118.556H329.164Z" fill="black"/>
<path d="M319.062 125.123C320.064 125.628 321.181 125.874 322.307 125.84C325.298 125.84 327.833 123.693 327.833 120.257C327.833 116.572 325.224 113.387 321.176 113.387C318.003 113.387 315.869 115.569 315.869 118.558C315.869 121.242 317.401 122.816 319.115 122.816C319.844 122.816 320.519 122.331 320.465 121.242H320.538C320.774 121.713 321.14 122.111 321.594 122.389C322.048 122.667 322.573 122.815 323.108 122.816C324.166 122.816 325.078 121.975 325.078 120.562C325.08 120.004 324.97 119.452 324.753 118.937C324.537 118.421 324.218 117.953 323.817 117.559C323.415 117.165 322.937 116.852 322.412 116.64C321.887 116.427 321.324 116.319 320.755 116.321C320.085 116.311 319.421 116.44 318.804 116.697L319.424 119.935C319.698 121.293 319.479 121.923 318.877 121.939C317.947 121.957 316.907 120.74 316.907 118.665C316.907 116.071 318.494 114.21 321.321 114.21C324.294 114.21 326.792 116.518 326.792 120.15C326.792 123.138 324.804 124.981 322.105 124.981C321.148 125.003 320.201 124.787 319.351 124.355L319.062 125.123ZM320.065 117.393C320.361 117.308 320.669 117.266 320.977 117.268C322.582 117.268 323.877 118.753 323.877 120.489C323.877 121.276 323.476 121.846 322.673 121.846C321.615 121.846 320.649 120.522 320.449 119.413L320.065 117.393Z" fill="black"/>
<path d="M310.128 118.556V119.72H314.633V118.556H310.128Z" fill="black"/>
<path d="M304.53 118.556V119.72H309.035V118.556H304.53Z" fill="black"/>
<path d="M298.933 118.556V119.72H303.437V118.556H298.933Z" fill="black"/>
</g>
<path d="M80.2272 217.571C104.839 217.571 124.792 224.159 124.792 232.285V249.801H35.6618V232.285C35.6618 224.159 55.6144 217.571 80.2272 217.571Z" fill="#367CFF"/>
<path opacity="0.49" d="M80.2272 217.571C104.839 217.571 124.792 224.159 124.792 232.285V249.801H35.6618V232.285C35.6618 224.159 55.6144 217.571 80.2272 217.571Z" fill="white"/>
<path opacity="0.49" d="M47.8022 232.287V249.8H124.793V232.287C124.793 224.838 108.036 218.684 86.298 217.711C64.5571 218.684 47.8022 224.838 47.8022 232.287Z" fill="white"/>
<path d="M35.6621 419.999H34.1663L35.6621 248.247L37.145 249.714L36.0877 369.688L88.8856 370.568L89.9509 249.702L91.4338 249.714L90.3681 370.593L122.24 371.125L123.31 249.702L124.793 248.26L123.298 419.999L121.827 419.987L122.228 372.58L90.3557 372.048L89.9509 419.999L88.468 419.987L88.8728 372.024L36.0749 371.143L35.6621 419.999Z" fill="#292A2E"/>
<path d="M170.086 394.286C170.086 394.286 172.737 407.763 185.6 408.515C198.463 409.266 195.674 419.319 195.674 419.319H146.518V395.225L170.086 394.286Z" fill="#182D72"/>
<path d="M142.041 353.747C142.041 353.747 138.355 366.988 149.559 373.233C160.763 379.477 153.737 387.29 153.737 387.29L109.63 366.002L120.47 344.383L142.041 353.747Z" fill="#182D72"/>
<path d="M146.708 362.498L179.943 239.476C182.464 225.886 178.668 219.995 172.82 214.272C162.546 204.218 119.971 182.819 119.971 182.819L68.8945 182.682C55.3506 182.682 42.0376 195.784 42.0376 209.07C42.0376 222.356 55.8054 233.624 69.3488 233.624L132.245 239.782L115.195 352.425L146.708 362.498Z" fill="#262626"/>
<path d="M115.196 352.425L121.908 308.079L155.912 328.428L146.708 362.499L115.196 352.425Z" fill="#0C0C0C"/>
<path d="M107.488 207.714C107.488 207.714 128.959 212.408 150.224 233.27C163.117 245.918 162.06 268.808 160.126 312.831L139.006 282.227L115.841 241.24L107.488 207.714Z" fill="#0C0C0C"/>
<path d="M33.1461 182.669L67.8333 182.508L67.8461 182.956H78.3496C78.3496 182.956 104.66 206.706 125.841 221.673C141.249 232.559 150.648 242.937 151.461 254.249C153.444 281.822 175.805 399.421 175.805 399.421L142.152 404.42L112.619 263.881C112.619 263.881 66.4409 242.994 55.7595 235.728C45.7014 228.884 38.5968 226.238 35.2682 218.769C29.5199 205.869 33.1461 182.669 33.1461 182.669Z" fill="#262626"/>
<path d="M72.061 191.24L128.332 191.971L96.7668 210.467L70.5015 197.161C69.8686 196.827 69.3682 196.295 69.0802 195.649C68.7922 195.004 68.7333 194.282 68.913 193.6C69.0927 192.918 69.5006 192.314 70.0714 191.886C70.6422 191.459 71.3428 191.231 72.061 191.24Z" fill="#292A2E"/>
<path opacity="0.2" d="M72.061 191.24L128.332 191.971L96.7668 210.467L70.5015 197.161C69.8686 196.827 69.3682 196.295 69.0802 195.649C68.7922 195.004 68.7333 194.282 68.913 193.6C69.0927 192.918 69.5006 192.314 70.0714 191.886C70.6422 191.459 71.3428 191.231 72.061 191.24Z" fill="white"/>
<path d="M128.01 92.2021L143.927 142.796L175.807 183.744L157.184 204.717L119.257 163.188C117.509 161.833 116.142 160.064 115.285 158.047L114.694 156.644L92.7867 104.643L128.01 92.2021Z" fill="#1189E4"/>
<path d="M103.491 38.4985C103.491 38.4985 109.905 33.7461 111.494 22.8158C112.724 14.3522 104.766 19.8354 104.766 19.8354C104.766 19.8354 105.592 13.7325 101.059 14.3382C96.5262 14.9439 93.9904 21.3547 93.9904 21.3547" fill="#0C0C0C"/>
<path d="M77.6339 15.0527C77.6339 15.0527 55.1461 17.4177 63.2754 47.3129L65.2649 47.4438L69.3044 47.7095" fill="#0C0C0C"/>
<path d="M99.7247 78.5335C99.6259 78.5209 98.5285 96.379 77.3823 94.8238C62.7405 93.7478 57.5202 78.5083 57.1851 78.5083C58.7634 78.179 60.7144 77.6795 61.4894 77.5084C63.1792 77.1237 64.7096 76.2433 65.8769 74.9845C67.0442 73.7257 67.7932 72.148 68.0241 70.4613C68.4522 67.93 67.7276 54.9784 67.9495 52.417L90.4215 57.3381C90.1071 62.748 87.9094 75.2888 95.6116 77.5084C96.8944 77.875 98.2754 78.2144 99.7247 78.5335Z" fill="#DE9C83"/>
<path opacity="0.52" d="M90.7364 72.3831C90.3844 71.27 90.1576 70.1224 90.0602 68.9609C89.8135 66.3105 89.8632 63.6415 90.2085 61.0017C85.6404 60.3978 81.3365 58.5489 77.7861 55.665C77.3685 57.1771 75.0734 63.7838 75.7101 65.2182C76.9102 67.9338 82.5547 72.3831 90.7364 72.3831Z" fill="#0C0C0C"/>
<path d="M86.0978 68.8483C77.2315 68.068 66.6193 62.5723 66.4661 50.7647L66.3282 40.1107C66.175 28.3036 72.3725 18.6529 83.7044 18.5113C95.0363 18.3702 103.631 27.8361 103.784 39.6437L103.845 44.3602C103.837 45.98 103.717 47.5974 103.485 49.2012C102.904 53.4444 102.002 59.8955 99.0669 64.2594C96.2953 68.3793 91.7625 69.3463 86.0978 68.8483Z" fill="#DE9C83"/>
<path opacity="0.52" d="M90.2115 58.056C92.0414 58.1373 93.8651 57.7956 95.5357 57.0585C95.6039 57.0282 95.6573 56.973 95.6844 56.9046C95.7116 56.8362 95.7104 56.7601 95.6811 56.6925C95.6517 56.625 95.5966 56.5714 95.5274 56.5433C95.4583 56.5152 95.3807 56.5147 95.3113 56.542C91.7122 58.0478 88.4444 57.8276 85.8612 55.9048C85.8092 55.8644 85.7551 55.8267 85.699 55.7918C85.6341 55.7619 85.56 55.7569 85.4915 55.778C85.423 55.7991 85.3651 55.8447 85.3292 55.9058C85.2934 55.9668 85.2822 56.0388 85.298 56.1076C85.3138 56.1763 85.3553 56.2367 85.4143 56.2768C85.4351 56.2894 85.4687 56.3151 85.5132 56.35C86.8712 57.3649 88.5072 57.9589 90.2115 58.056Z" fill="#0C0C0C"/>
<path opacity="0.52" d="M90.1278 60.7155C90.4584 60.7355 90.7901 60.7277 91.1194 60.6922C91.1567 60.6883 91.1929 60.6773 91.2258 60.6597C91.2588 60.6421 91.2879 60.6183 91.3115 60.5896C91.3351 60.561 91.3527 60.5281 91.3634 60.4928C91.374 60.4574 91.3774 60.4204 91.3735 60.3838C91.3695 60.3472 91.3582 60.3117 91.3403 60.2793C91.3223 60.247 91.2981 60.2184 91.2689 60.1953C91.2397 60.1721 91.2062 60.1549 91.1702 60.1444C91.1342 60.134 91.0964 60.1307 91.0591 60.1345C89.0789 60.3406 88.1333 59.4508 88.0933 59.4125C88.0397 59.3598 87.967 59.3302 87.8912 59.3301C87.8154 59.33 87.7426 59.3595 87.6889 59.412C87.6352 59.4645 87.605 59.5358 87.6049 59.6102C87.6048 59.6846 87.6349 59.756 87.6884 59.8087C88.3704 60.3783 89.2323 60.6988 90.1278 60.7155Z" fill="#0C0C0C"/>
<path d="M100.042 46.6305C99.2707 46.6305 98.6457 46.0174 98.6457 45.2611C98.6457 44.5047 99.2707 43.8916 100.042 43.8916C100.813 43.8916 101.438 44.5047 101.438 45.2611C101.438 46.0174 100.813 46.6305 100.042 46.6305Z" fill="#0C0C0C"/>
<path d="M86.4044 45.7916C85.6334 45.7916 85.0085 45.1785 85.0085 44.4222C85.0085 43.6659 85.6334 43.0527 86.4044 43.0527C87.1753 43.0527 87.8003 43.6659 87.8003 44.4222C87.8003 45.1785 87.1753 45.7916 86.4044 45.7916Z" fill="#0C0C0C"/>
<path d="M67.2164 54.3559C63.7726 54.3991 60.9343 50.8193 60.8894 47.4408C60.8444 44.0623 63.6135 42.1643 67.0573 42.1216L68.861 44.3629L70.1763 54.3191L67.2164 54.3559Z" fill="#DE9C83"/>
<path d="M70.6429 48.9246C70.6429 48.9246 71.8055 32.2172 76.9699 31.1853C80.4093 30.4981 88.7497 35.2844 96.4751 33.8388C99.8547 33.2084 103.063 34.027 103.389 35.5933C103.519 36.2135 105.624 27.301 100.332 20.5391C96.1178 15.1563 82.3282 13.6336 76.0545 15.3988C58.6827 20.2879 66.3484 42.8542 66.3484 42.8542L67.123 48.6142L70.6429 48.9246Z" fill="#0C0C0C"/>
<g opacity="0.52">
<path d="M92.2933 54.1133C92.3006 54.1138 92.3078 54.1138 92.3151 54.1133C93.4248 54.1026 95.2853 53.9625 95.2779 53.1483C95.27 52.4732 93.3126 45.2075 93.0892 44.3812C93.07 44.3101 93.0227 44.2493 92.9579 44.2124C92.8931 44.1754 92.8159 44.1652 92.7434 44.1841C92.6709 44.2029 92.609 44.2492 92.5713 44.3128C92.5336 44.3765 92.5233 44.4521 92.5425 44.5233C93.4124 47.7413 94.7075 52.6953 94.7125 53.1551C94.6052 53.349 93.4589 53.5488 92.3101 53.5605C92.2377 53.562 92.1686 53.5907 92.1171 53.6408C92.0656 53.6909 92.0357 53.7584 92.0336 53.8295C92.0314 53.9006 92.0571 53.9698 92.1055 54.0228C92.1538 54.0758 92.2211 54.1085 92.2933 54.1143V54.1133Z" fill="#0C0C0C"/>
</g>
<path d="M96.0793 37.8358C97.2457 37.5209 98.4772 37.5209 99.6437 37.8358C100.216 37.987 100.763 38.2217 101.265 38.5322C101.761 38.8362 102.216 39.2005 102.619 39.6165C102.693 39.6906 102.736 39.7899 102.737 39.8939C102.739 39.9978 102.699 40.0984 102.627 40.1746C102.555 40.2508 102.456 40.2968 102.35 40.303C102.244 40.3093 102.14 40.2753 102.059 40.2081L102.034 40.1868C101.661 39.8477 101.246 39.5562 100.798 39.3192C100.359 39.0833 99.8867 38.9139 99.3961 38.8168C98.4303 38.6182 97.4282 38.6732 96.491 38.9764L96.452 38.9899C96.2986 39.0385 96.132 39.0264 95.9876 38.9562C95.8431 38.8861 95.7323 38.7635 95.6786 38.6144C95.6249 38.4653 95.6326 38.3016 95.7001 38.158C95.7675 38.0144 95.8894 37.9023 96.0398 37.8455L96.0793 37.8358Z" fill="#0C0C0C"/>
<path d="M87.8209 38.5233C86.9333 38.1003 85.9475 37.9147 84.9633 37.9855C84.464 38.0173 83.9725 38.1233 83.5056 38.2998C83.0306 38.4766 82.58 38.7112 82.1646 38.9981L82.1379 39.0155C82.0486 39.0719 81.9407 39.0923 81.8365 39.0725C81.7323 39.0527 81.6399 38.9942 81.5786 38.9092C81.5174 38.8242 81.4919 38.7192 81.5076 38.6163C81.5233 38.5133 81.5789 38.4202 81.6628 38.3565C82.1188 37.9969 82.6192 37.6954 83.1522 37.4589C83.6917 37.2168 84.2652 37.0557 84.8536 36.9808C86.0521 36.8205 87.2725 36.9808 88.3859 37.4448C88.4605 37.4767 88.528 37.5226 88.5846 37.5801C88.6411 37.6375 88.6856 37.7053 88.7154 37.7796C88.7452 37.8539 88.7599 37.9333 88.7585 38.0131C88.757 38.0929 88.7396 38.1717 88.7071 38.245C88.6416 38.3929 88.5188 38.5092 88.3659 38.5683C88.2901 38.5976 88.2093 38.6119 88.1279 38.6105C88.0465 38.6091 87.9662 38.592 87.8916 38.5602L87.8569 38.5442L87.8209 38.5233Z" fill="#0C0C0C"/>
<path d="M88.3864 20.6152C87.6025 16.9345 89.0335 13.5271 91.5825 13.0046C94.1316 12.4821 96.8335 15.0424 97.6174 18.7232C98.4012 22.4039 96.9703 25.8112 94.4212 26.3337C91.8721 26.8562 89.1702 24.2959 88.3864 20.6152Z" fill="#0C0C0C"/>
<path d="M126.001 117.785C125.335 125.462 120.614 173.363 119.971 182.82H33.1843C32.6855 174.291 30.4468 136.994 28.5556 120.312C26.7504 104.396 24.2206 97.1529 26.2996 92.2071C29.9664 83.4831 41.6378 79.5877 49.5412 78.5378C54.3676 77.8967 61.6265 77.4375 61.6265 77.4375C61.6265 77.4375 62.2409 89.635 76.896 90.3139C96.846 91.2353 95.5133 77.4375 95.6122 77.4375C98.8445 77.4375 116.436 79.7433 120.835 82.556C127.048 86.5285 128.885 91.9428 128.957 96.9167C129.04 102.645 126.756 109.076 126.001 117.785Z" fill="#1189E4"/>
<path d="M121.601 163.944C121.663 163.944 121.722 163.921 121.768 163.88C121.814 163.84 121.842 163.783 121.848 163.723L125.136 126.829C125.142 126.765 125.121 126.701 125.079 126.652C125.037 126.603 124.977 126.572 124.911 126.566C124.879 126.563 124.846 126.566 124.815 126.575C124.784 126.585 124.755 126.6 124.73 126.621C124.705 126.641 124.684 126.667 124.67 126.695C124.655 126.724 124.646 126.755 124.644 126.787L121.355 163.68C121.35 163.744 121.37 163.808 121.412 163.857C121.454 163.906 121.515 163.937 121.58 163.943C121.587 163.944 121.594 163.944 121.601 163.944Z" fill="#0C0C0C"/>
<path d="M115.308 185.374L103.391 175.889L105.396 176.445C106.047 176.612 106.739 176.53 107.33 176.216C107.922 175.902 108.37 175.38 108.585 174.754C108.684 174.427 108.714 174.084 108.673 173.746C108.633 173.407 108.522 173.08 108.349 172.785C108.175 172.49 107.942 172.232 107.663 172.028C107.385 171.824 107.067 171.678 106.729 171.598L81.695 165.625L79.5408 173.448C78.8716 175.877 78.9572 178.448 79.7866 180.829C80.616 183.211 82.1515 185.295 84.1962 186.815L93.4722 193.683C93.9471 194.048 94.536 194.242 95.1394 194.23C95.7429 194.219 96.3238 194.004 96.7841 193.621C97.1927 193.266 97.4749 192.792 97.5893 192.268C97.7038 191.745 97.6445 191.199 97.4202 190.711C97.4604 190.699 97.4967 190.677 97.5251 190.647C97.55 190.618 97.5672 190.583 97.5751 190.545C97.5829 190.508 97.5812 190.469 97.57 190.432L99.2788 191.702C99.8068 192.111 100.473 192.308 101.144 192.253C101.814 192.199 102.439 191.896 102.891 191.407C103.279 190.957 103.493 190.386 103.495 189.796C103.496 189.205 103.286 188.634 102.9 188.181C102.927 188.177 102.953 188.168 102.977 188.155L103.679 188.677C104.153 189.042 104.742 189.236 105.346 189.224C105.949 189.213 106.53 188.998 106.99 188.615C107.486 188.184 107.792 187.582 107.845 186.935C107.898 186.288 107.693 185.645 107.274 185.143C107.284 185.129 107.292 185.114 107.299 185.098L112.262 189.048C112.508 189.244 112.791 189.39 113.094 189.478C113.398 189.567 113.716 189.596 114.032 189.564C114.347 189.531 114.652 189.439 114.931 189.291C115.209 189.143 115.455 188.942 115.655 188.701C115.854 188.459 116.004 188.182 116.094 187.884C116.184 187.586 116.214 187.274 116.181 186.964C116.148 186.655 116.053 186.356 115.902 186.082C115.751 185.809 115.547 185.568 115.301 185.372L115.308 185.374Z" fill="#DE9C83"/>
<path opacity="0.2" d="M107.002 185.239C106.976 185.23 106.952 185.217 106.93 185.199L102.155 181.307C102.131 181.288 102.111 181.263 102.096 181.236C102.082 181.209 102.073 181.179 102.07 181.148C102.067 181.117 102.07 181.086 102.08 181.056C102.089 181.027 102.104 180.999 102.124 180.976C102.145 180.952 102.169 180.932 102.197 180.918C102.225 180.903 102.256 180.894 102.287 180.892C102.319 180.889 102.35 180.892 102.38 180.901C102.411 180.91 102.438 180.925 102.463 180.945L107.237 184.836C107.281 184.872 107.31 184.921 107.32 184.976C107.33 185.03 107.32 185.086 107.292 185.134C107.264 185.182 107.22 185.219 107.167 185.239C107.114 185.258 107.056 185.258 107.002 185.239Z" fill="#0A0A0A"/>
<path opacity="0.2" d="M102.794 188.178C102.769 188.169 102.745 188.156 102.724 188.139L98.9467 185.109C98.8973 185.069 98.866 185.012 98.8596 184.95C98.8532 184.888 98.8722 184.825 98.9125 184.777C98.9528 184.729 99.0111 184.698 99.0745 184.692C99.1379 184.685 99.2013 184.704 99.2506 184.744L103.028 187.773C103.072 187.809 103.102 187.858 103.112 187.913C103.123 187.967 103.113 188.024 103.085 188.072C103.057 188.121 103.013 188.158 102.959 188.177C102.906 188.197 102.848 188.197 102.794 188.178Z" fill="#0A0A0A"/>
<path opacity="0.2" d="M97.2661 190.719C97.2385 190.709 97.2129 190.694 97.1905 190.675L95.4411 189.204C95.4172 189.184 95.3976 189.159 95.3833 189.131C95.3691 189.104 95.3605 189.074 95.3581 189.043C95.3557 189.012 95.3595 188.981 95.3693 188.952C95.3791 188.922 95.3947 188.895 95.4152 188.872C95.4357 188.848 95.4607 188.829 95.4888 188.815C95.5169 188.801 95.5476 188.793 95.579 188.79C95.6104 188.788 95.642 188.792 95.6719 188.801C95.7019 188.811 95.7296 188.826 95.7535 188.846L97.5034 190.318C97.5458 190.354 97.5741 190.403 97.5834 190.457C97.5926 190.512 97.5823 190.567 97.5542 190.615C97.526 190.662 97.4818 190.699 97.4292 190.718C97.3766 190.737 97.3189 190.737 97.2661 190.719Z" fill="#0A0A0A"/>
<path d="M9.98547 162.142L10.0769 161.744L25.9178 93.0088L57.2566 99.9588L44.8926 153.611L94.4208 165.551L88.3255 192.968L22.3233 180.618C22.175 180.589 21.955 180.545 21.8047 180.512C19.7992 180.067 17.9026 179.239 16.2232 178.075C14.5438 176.911 13.1145 175.434 12.017 173.729C10.9195 172.023 10.1752 170.122 9.82659 168.134C9.47803 166.146 9.53201 164.11 9.98547 162.142Z" fill="#1189E4"/>
<path d="M94.6631 165.603C94.6762 165.541 94.6645 165.477 94.6304 165.424C94.5963 165.371 94.5424 165.332 94.4802 165.317L45.1725 153.437L53.1896 118.698C53.1986 118.666 53.201 118.633 53.1966 118.601C53.1922 118.568 53.1811 118.537 53.1639 118.508C53.1468 118.48 53.124 118.456 53.0969 118.436C53.0698 118.417 53.039 118.403 53.0063 118.396C52.9736 118.389 52.9398 118.388 52.9069 118.394C52.8739 118.4 52.8426 118.413 52.8147 118.431C52.7868 118.449 52.763 118.473 52.7447 118.5C52.7264 118.528 52.7139 118.558 52.7082 118.591L44.6372 153.562C44.6223 153.624 44.633 153.689 44.6671 153.744C44.7012 153.798 44.7558 153.837 44.8191 153.853L94.1302 165.734C94.1302 165.734 93.8 167.148 93.7066 167.625C93.6993 167.687 93.7174 167.749 93.757 167.798C93.7965 167.847 93.8544 167.879 93.9177 167.886C93.981 167.893 94.0447 167.876 94.0946 167.837C94.1446 167.798 94.1768 167.741 94.1841 167.679C94.2978 167.156 94.6631 165.603 94.6631 165.603Z" fill="#0C0C0C"/>
<path d="M92.7303 203.888L111.773 146.461C112.108 145.452 112.759 144.572 113.635 143.949C114.51 143.325 115.564 142.989 116.646 142.989H194.228C195.037 142.989 195.834 143.177 196.555 143.537C197.275 143.897 197.898 144.42 198.374 145.062C198.849 145.704 199.163 146.447 199.289 147.231C199.415 148.014 199.351 148.816 199.1 149.571L180.057 206.998C179.722 208.007 179.071 208.886 178.195 209.51C177.32 210.134 176.266 210.469 175.184 210.47H97.6027C96.794 210.469 95.9967 210.282 95.2762 209.921C94.5557 209.561 93.9324 209.039 93.4571 208.397C92.9819 207.755 92.6683 207.012 92.542 206.228C92.4157 205.444 92.4802 204.643 92.7303 203.888Z" fill="#292A2E"/>
<path opacity="0.2" d="M92.7303 203.888L111.773 146.461C112.108 145.452 112.759 144.572 113.635 143.949C114.51 143.325 115.564 142.989 116.646 142.989H194.228C195.037 142.989 195.834 143.177 196.555 143.537C197.275 143.897 197.898 144.42 198.374 145.062C198.849 145.704 199.163 146.447 199.289 147.231C199.415 148.014 199.351 148.816 199.1 149.571L180.057 206.998C179.722 208.007 179.071 208.886 178.195 209.51C177.32 210.134 176.266 210.469 175.184 210.47H97.6027C96.794 210.469 95.9967 210.282 95.2762 209.921C94.5557 209.561 93.9324 209.039 93.4571 208.397C92.9819 207.755 92.6683 207.012 92.542 206.228C92.4157 205.444 92.4802 204.643 92.7303 203.888Z" fill="white"/>
<path d="M148.15 184.712C143.656 184.712 140.013 181.138 140.013 176.73C140.013 172.321 143.656 168.747 148.15 168.747C152.644 168.747 156.287 172.321 156.287 176.73C156.287 181.138 152.644 184.712 148.15 184.712Z" fill="white"/>
</svg>
