<svg width="21" height="23" viewBox="0 0 21 23" fill="none" xmlns="http://www.w3.org/2000/svg">
<path d="M10.4555 5.60418C7.51225 5.60418 5.13821 8.23431 5.13821 11.4951C5.13821 14.7558 7.51225 17.3859 10.4555 17.3859C13.3988 17.3859 15.7728 14.7558 15.7728 11.4951C15.7728 8.23431 13.3988 5.60418 10.4555 5.60418ZM10.4555 15.3249C8.5535 15.3249 6.99857 13.6074 6.99857 11.4951C6.99857 9.38275 8.54887 7.66522 10.4555 7.66522C12.3622 7.66522 13.9125 9.38275 13.9125 11.4951C13.9125 13.6074 12.3575 15.3249 10.4555 15.3249ZM17.2306 5.36322C17.2306 6.12713 16.6752 6.73724 15.9903 6.73724C15.3008 6.73724 14.7501 6.12201 14.7501 5.36322C14.7501 4.60443 15.3054 3.98919 15.9903 3.98919C16.6752 3.98919 17.2306 4.60443 17.2306 5.36322ZM20.7523 6.75775C20.6736 4.91717 20.2941 3.2868 19.077 1.94354C17.8646 0.60028 16.3929 0.179871 14.7316 0.0875854C13.0193 -0.0200806 7.8871 -0.0200806 6.17483 0.0875854C4.51809 0.174744 3.04646 0.595153 1.82936 1.93841C0.612258 3.28168 0.23741 4.91205 0.15411 6.75262C0.0569268 8.64959 0.0569268 14.3354 0.15411 16.2324C0.232782 18.0729 0.612258 19.7033 1.82936 21.0466C3.04646 22.3898 4.51346 22.8102 6.17483 22.9025C7.8871 23.0102 13.0193 23.0102 14.7316 22.9025C16.3929 22.8154 17.8646 22.3949 19.077 21.0466C20.2895 19.7033 20.669 18.0729 20.7523 16.2324C20.8495 14.3354 20.8495 8.65472 20.7523 6.75775ZM18.5402 18.2678C18.1792 19.2726 17.4805 20.0468 16.5688 20.4518C15.2036 21.0517 11.9642 20.9133 10.4555 20.9133C8.94686 20.9133 5.7028 21.0466 4.34224 20.4518C3.43519 20.0519 2.7364 19.2778 2.37081 18.2678C1.82936 16.7553 1.95431 13.1664 1.95431 11.4951C1.95431 9.82366 1.83399 6.22967 2.37081 4.72235C2.73177 3.71747 3.43057 2.9433 4.34224 2.53827C5.70743 1.93841 8.94686 2.07684 10.4555 2.07684C11.9642 2.07684 15.2082 1.94354 16.5688 2.53827C17.4758 2.93817 18.1746 3.71234 18.5402 4.72235C19.0817 6.2348 18.9567 9.82366 18.9567 11.4951C18.9567 13.1664 19.0817 16.7604 18.5402 18.2678Z" fill="white"/>
</svg>
