<svg width="24" height="21" viewBox="0 0 24 21" fill="none" xmlns="http://www.w3.org/2000/svg">
<path d="M23.7463 2.77743C22.8729 3.19228 21.9465 3.46459 20.9979 3.5853C21.986 2.95033 22.7447 1.94484 23.1019 0.746799C22.1626 1.34444 21.1349 1.76551 20.0633 1.99182C19.1904 0.99473 17.9468 0.371582 16.5705 0.371582C13.9277 0.371582 11.7851 2.6688 11.7851 5.50212C11.7851 5.9043 11.8275 6.29583 11.909 6.67144C7.93213 6.45741 4.4062 4.41486 2.04602 1.31075C1.63421 2.06851 1.39823 2.94994 1.39823 3.89009C1.39823 5.67014 2.24309 7.24047 3.527 8.16059C2.7671 8.13507 2.02392 7.91501 1.35951 7.51878C1.35924 7.54027 1.35924 7.56176 1.35924 7.58335C1.35924 10.0692 3.00868 12.1429 5.19767 12.6143C4.49302 12.8197 3.75389 12.8498 3.03674 12.7022C3.64562 14.7405 5.41287 16.2238 7.50674 16.2653C5.86905 17.6413 3.8057 18.4616 1.56387 18.4616C1.17757 18.4616 0.796731 18.4373 0.422363 18.3899C2.54001 19.8457 5.05526 20.695 7.75756 20.695C16.5593 20.695 21.3724 12.877 21.3724 6.09714C21.3724 5.8746 21.3678 5.65334 21.3585 5.43335C22.2953 4.70722 23.1039 3.80785 23.7463 2.77743Z" fill="white"/>
</svg>
