<svg width="22" height="23" viewBox="0 0 22 23" fill="none" xmlns="http://www.w3.org/2000/svg">
<path d="M5.25661 22.7085V7.94948H0.811716V22.7085H5.25661ZM3.03474 5.93317C4.58475 5.93317 5.54956 4.79985 5.54956 3.38357C5.52069 1.93536 4.58481 0.833496 3.06415 0.833496C1.54373 0.833496 0.549469 1.93538 0.549469 3.38357C0.549469 4.79991 1.51404 5.93317 3.00572 5.93317H3.0346H3.03474ZM7.71685 22.7085H12.1618V14.4663C12.1618 14.0252 12.1906 13.5846 12.308 13.2693C12.6293 12.3879 13.3607 11.4751 14.5886 11.4751C16.197 11.4751 16.8405 12.8286 16.8405 14.8126V22.7084H21.2851V14.2457C21.2851 9.71232 19.0922 7.60298 16.1677 7.60298C13.7699 7.60298 12.7171 9.08221 12.1322 10.0897H12.1618V7.94917H7.71695C7.77528 9.33408 7.71695 22.7082 7.71695 22.7082L7.71685 22.7085Z" fill="white"/>
</svg>
